<?xml version="1.0" encoding="utf-8"?>
<!-- Generator: Adobe Illustrator 27.5.0, SVG Export Plug-In . SVG Version: 6.00 Build 0)  -->
<svg version="1.1" id="レイヤー_1" xmlns="http://www.w3.org/2000/svg" xmlns:xlink="http://www.w3.org/1999/xlink" x="0px"
	 y="0px" viewBox="0 0 768 768" style="enable-background:new 0 0 768 768;" xml:space="preserve">
<style type="text/css">
	.st0{fill:#FFFFFF;stroke:#F4A00B;stroke-width:4;stroke-miterlimit:10;}
	.st1{fill:none;stroke:#F4A00B;stroke-width:2;stroke-linecap:round;stroke-miterlimit:10;}
	.st2{fill:#F4A00B;}
	.st3{fill:#F4A00B;stroke:#FFFFFF;stroke-width:4;stroke-miterlimit:10;}
	.st4{fill:none;stroke:#F4A00B;stroke-width:4;stroke-linecap:round;stroke-miterlimit:10;}
	.st5{fill:none;stroke:#F4A00B;stroke-width:4;stroke-linecap:square;stroke-miterlimit:10;}
</style>
<g>
	<path class="st0" d="M40.98,438.79c-0.45-6.96-0.68-13.99-0.68-21.06c0-178.33,144.57-322.9,322.9-322.9s322.9,144.57,322.9,322.9
		c0,72.03-18.89,130.99-58.86,184.86c-8.9,7.62-59.57,44.14-196.01,25.77c-154.29-20.78-244.47,30.86-265.54,44.82
		C94.61,618.13,47.12,534.09,40.98,438.79z"/>
	<path class="st1" d="M169.72,652.21c0,0,83.84-65.63,261.52-41.7c151.88,20.45,192.08-30.05,192.08-30.05"/>
	<path class="st2" d="M546.43,380.4v64.71c-29.02,14.49-68.5,25.42-122.24,28.35c-133.96,7.3-221.54,75.04-252.67,103.43
		l-39.23,6.84c-4.24,0.75-8.13-2.52-8.13-6.82V437.75L546.43,380.4z"/>
	<path class="st3" d="M128.48,440.11l414.57-55.4c2.12-0.28,3.3-2.61,2.25-4.48C533.35,358.98,472,257.28,382.24,239.66
		c-0.86-0.17-1.75,0.05-2.45,0.58L126.23,434.7C123.77,436.59,125.4,440.52,128.48,440.11z"/>
	<path class="st3" d="M386.12,307.23c0,33.03-23.8,41.2-53.17,41.2c-29.36,0-53.17-8.17-53.17-41.2s23.8-75.76,53.17-75.76
		C362.31,231.47,386.12,274.2,386.12,307.23z"/>
	<path class="st4" d="M169.55,576.32c-8.39,7.63-26.55,26.31-26.55,26.31"/>
	<path class="st1" d="M244.11,545.71c-59.23,29.21-93.18,73.35-93.18,73.35"/>
	<path class="st1" d="M626.31,408.32c-23.14,33.09-67.36,65.77-144.3,75.93"/>
	<path class="st3" d="M633.77,251.33c-23.58,32.04-17.76,122.42-17.76,122.42s46.73-33.61,79.74-57.99
		c33.02-24.38,39.27-54.67,24.14-75.17C704.75,220.1,658.1,218.28,633.77,251.33z"/>
	<path class="st2" d="M599.5,246.1c24.32,31.49,20.57,121.98,20.57,121.98s-47.49-32.52-81.06-56.14
		c-33.57-23.62-40.52-53.75-25.86-74.59C527.81,216.52,574.41,213.62,599.5,246.1z"/>
	<path class="st5" d="M546.45,442.56c80.35-40.13,80.43-107.49,80.43-107.49"/>
	<path class="st2" d="M355.12,517.76l5.87,21.01l-1.97-0.09c-1.73-3.76-3.58-7-5.53-9.72c-1.95-2.72-4.02-4.95-6.21-6.7
		c-2.19-1.74-4.55-3.06-7.07-3.94c-2.52-0.89-5.38-1.4-8.59-1.54c-4.56-0.2-8.86,0.48-12.88,2.05c-4.02,1.57-7.55,3.87-10.6,6.91
		c-3.04,3.05-5.46,6.7-7.26,10.96c-1.8,4.26-2.8,8.89-3.03,13.88c-0.33,7.54,0.85,14.49,3.56,20.83
		c2.71,6.34,6.58,11.39,11.63,15.16c5.05,3.77,10.74,5.79,17.09,6.07c4.37,0.19,8.5-0.48,12.39-2.01s7.39-3.84,10.51-6.92
		s5.89-7.01,8.31-11.78l2.38,0.1c-3.63,8.45-8.81,14.74-15.54,18.88c-6.73,4.14-14.82,6-24.26,5.59
		c-11.02-0.49-20.02-3.87-26.99-10.15c-2.98-2.73-5.45-5.78-7.42-9.16c-1.96-3.38-3.42-7.06-4.37-11.04
		c-0.95-3.97-1.33-8.03-1.15-12.17c0.34-7.7,2.59-14.65,6.76-20.86c4.17-6.21,9.75-10.99,16.74-14.35
		c6.99-3.35,14.62-4.85,22.9-4.48c3.48,0.15,8.04,0.86,13.68,2.12c3.91,0.91,6.76,1.4,8.54,1.48
		C353.39,517.91,354.22,517.87,355.12,517.76z M321.8,594.42c-4.85-1.57-9.22-3.7-13.09-6.39c-3.87-2.69-7.07-5.84-9.58-9.44
		c-2.52-3.6-4.36-7.64-5.54-12.13c-1.18-4.49-1.65-9.35-1.42-14.57c0.17-3.87,0.67-7.33,1.51-10.4c0.83-3.06,2.09-5.96,3.78-8.7
		c1.69-2.73,3.79-5.25,6.29-7.54c2.5-2.29,5.53-4.52,9.07-6.69c-4.14,1.64-7.82,3.64-11.02,6c-3.21,2.36-5.94,5.05-8.2,8.07
		c-2.27,3.02-4.02,6.35-5.27,10c-1.25,3.65-1.96,7.48-2.13,11.5c-0.19,4.33,0.24,8.5,1.31,12.5c1.06,4,2.66,7.7,4.8,11.08
		c2.14,3.39,4.78,6.29,7.93,8.72c3.15,2.39,6.43,4.21,9.85,5.46C313.49,593.16,317.4,594,321.8,594.42z"/>
	<path class="st2" d="M396.49,586.6c-5.13,3.55-10.41,5.07-15.84,4.55c-4.36-0.42-7.73-1.88-10.11-4.38
		c-2.39-2.51-3.4-5.59-3.05-9.25c0.5-5.2,3.44-9.04,8.81-11.53c5.37-2.48,12.86-3.45,22.45-2.92l0.15-1.62l0.08-0.81
		c0.29-3.01,0.39-5.48,0.3-7.41c-0.09-1.93-0.34-3.41-0.74-4.42c-0.47-1.17-1.2-2.15-2.2-2.92c-1-0.78-2.11-1.22-3.34-1.34
		c-1.81-0.17-3.29,0.28-4.45,1.35c-1.15,1.08-1.98,2.83-2.49,5.28c-0.54,2.4-1.2,4-1.98,4.8c-0.78,0.8-2.01,1.12-3.71,0.96
		c-1.31-0.13-2.37-0.7-3.16-1.7c-0.8-1.01-1.13-2.25-0.99-3.71c0.19-1.97,1.07-3.68,2.65-5.14c1.58-1.46,3.68-2.54,6.29-3.22
		c2.61-0.68,5.42-0.88,8.43-0.59c3.89,0.37,7.23,1.48,10.01,3.32c2.78,1.84,4.75,4.22,5.91,7.13c0.63,1.5,1.03,3.15,1.19,4.96
		c0.16,1.81,0.09,4.27-0.21,7.39l-1.6,16.65c-0.31,3.2-0.05,5.52,0.76,6.96c0.81,1.44,2.51,2.52,5.09,3.23l-0.15,1.56l-18.62-1.79
		L396.49,586.6z M383.35,589.77c-6.42-1.98-9.36-5.88-8.8-11.7c0.36-3.78,2.19-6.87,5.5-9.27c1.46-1.07,4.21-2.34,8.24-3.82
		c-4.75,0.44-8.49,1.31-11.22,2.6c-4.65,2.28-7.19,5.63-7.62,10.06c-0.31,3.2,0.61,5.9,2.75,8.11c2.14,2.21,5.06,3.49,8.76,3.85
		C381.86,589.68,382.65,589.74,383.35,589.77z M387.73,544.1c-2.76,0.43-5.04,1.35-6.83,2.76c-1.79,1.4-2.78,3.07-2.96,4.99
		c-0.07,0.73,0.05,1.33,0.35,1.79c0.31,0.46,0.75,0.71,1.33,0.77c0.54,0.05,0.96-0.07,1.26-0.37c0.3-0.3,0.6-0.95,0.89-1.93
		c0.63-2.12,1.34-3.69,2.12-4.73C384.67,546.34,385.95,545.25,387.73,544.1z M396.74,584.05l1.83-19.14
		c-3.79,0.22-7.09,0.88-9.9,1.97c-2.81,1.09-5.03,2.61-6.65,4.55c-1.63,1.94-2.56,4.17-2.8,6.67c-0.24,2.54,0.32,4.73,1.68,6.55
		c1.36,1.82,3.2,2.84,5.51,3.07C389.26,588,392.7,586.78,396.74,584.05z M398.19,589.62l8.56,0.82l-1.23-1.17
		c-0.1-0.13-0.18-0.19-0.21-0.2l-0.7-0.65c-0.52-0.63-0.74-1.39-0.66-2.28l0.11-1.16l0-0.58l1.89-19.66
		c0.51-5.36,0.28-9.42-0.7-12.2c-1.39-3.71-3.89-6.25-7.5-7.6c2.3,1.97,3.48,4.87,3.54,8.68c0.01,2.33-0.22,5.93-0.68,10.79
		L398.19,589.62z"/>
	<path class="st2" d="M420.06,595.56l0.08-1.57c2.66-0.33,4.5-1.13,5.54-2.42s1.64-3.55,1.81-6.8l2.91-56.03
		c0.17-3.25-0.2-5.58-1.12-7.01c-0.91-1.42-2.66-2.4-5.23-2.92l0.07-1.28l18.79-1.17l-3.59,69.02c-0.17,3.21,0.19,5.52,1.07,6.92
		c0.88,1.4,2.62,2.41,5.22,3.01l-0.08,1.57L420.06,595.56z M425.99,593.31l11.6,0.6l-1.34-1.12c-0.07-0.08-0.15-0.14-0.22-0.19
		l-0.72-0.62c-0.51-0.57-0.77-1.32-0.76-2.25l0.06-1.16l0.03-0.58l3.61-69.43l-9.57,0.55l2.18,1.74c0.04,0,0.11,0.06,0.22,0.19
		l0.72,0.62c0.37,0.29,0.6,0.7,0.69,1.23c0.09,0.53,0.1,1.45,0.03,2.76l-3.23,62.06c-0.08,1.59-0.21,2.57-0.39,2.95
		c-0.17,0.38-0.67,0.88-1.47,1.49c-0.12,0.07-0.18,0.13-0.18,0.16L425.99,593.31z"/>
	<path class="st2" d="M504.76,560.93c0.18,1.35,0.29,2.76,0.32,4.23l0.38,19.28c0.06,3.21,0.6,5.49,1.61,6.83
		c1.01,1.34,2.82,2.21,5.42,2.62l0.03,1.57l-25.49,0.5l-0.03-1.57c2.62-0.52,4.4-1.46,5.32-2.83c0.92-1.37,1.35-3.67,1.29-6.88
		l-0.38-19.63c-0.08-4.22-0.41-7.14-0.98-8.75c-0.54-1.73-1.45-3.09-2.75-4.07c-1.3-0.98-2.8-1.46-4.5-1.42
		c-2.44,0.05-4.75,0.87-6.92,2.46s-4.78,4.33-7.8,8.23l0.46,23.63c0.06,3.21,0.58,5.49,1.56,6.83c0.97,1.34,2.78,2.21,5.42,2.63
		l0.03,1.57l-25.49,0.5l-0.03-1.57c2.62-0.51,4.41-1.45,5.35-2.81c0.94-1.35,1.38-3.66,1.32-6.91l-0.48-24.39
		c-0.06-3.25-0.6-5.56-1.62-6.91c-1.01-1.35-2.82-2.2-5.42-2.54l-0.02-1.28l18.66-2.51l0.21,10.92c3.06-3.97,6.03-6.87,8.92-8.68
		c2.89-1.82,6.04-2.76,9.44-2.83c3.95-0.08,7.27,0.87,9.96,2.85c2.69,1.98,4.58,4.84,5.66,8.58c2.38-2.99,4.43-5.3,6.14-6.92
		c3.57-3.36,7.76-5.09,12.56-5.18c2.98-0.06,5.73,0.56,8.26,1.84c2.52,1.29,4.51,3.14,5.95,5.55c1.56,2.56,2.39,6.11,2.47,10.64
		l0.38,19.28c0.06,3.21,0.58,5.49,1.56,6.83c0.97,1.34,2.78,2.21,5.42,2.63l0.03,1.57l-25.49,0.5l-0.03-1.57
		c2.66-0.52,4.45-1.46,5.37-2.83c0.92-1.37,1.35-3.67,1.29-6.88l-0.38-19.63c-0.08-4.26-0.41-7.17-0.98-8.75
		c-0.54-1.77-1.45-3.14-2.72-4.1c-1.28-0.96-2.75-1.43-4.41-1.39c-2.44,0.05-4.81,0.92-7.12,2.61
		C510.16,554.42,507.59,557.15,504.76,560.93z M458,593.97l11.61-0.23l-1.41-1.02c-0.08-0.08-0.16-0.13-0.24-0.17l-0.77-0.57
		c-0.55-0.53-0.86-1.26-0.92-2.19l-0.02-1.16l-0.01-0.58l-0.74-37.8l-9.5,1.23l2.3,1.58c0.04,0,0.12,0.06,0.23,0.17l0.77,0.57
		c0.39,0.26,0.65,0.66,0.78,1.18c0.13,0.52,0.2,1.44,0.23,2.75l0.59,30.43c0.03,1.59-0.03,2.58-0.17,2.96
		c-0.15,0.39-0.6,0.92-1.36,1.6c-0.12,0.08-0.17,0.14-0.17,0.18L458,593.97z M492.72,593.29l11.61-0.23l-1.36-1.02
		c-0.08-0.04-0.16-0.09-0.24-0.17l-0.77-0.57c-0.59-0.57-0.9-1.3-0.91-2.19l-0.08-1.16l-0.01-0.58l-0.43-22.18
		c-0.14-5.34-1.07-9.16-2.78-11.45c-1.11-1.53-2.53-2.71-4.25-3.55c-1.72-0.84-3.55-1.24-5.48-1.2c-0.23,0-0.42,0.02-0.55,0.04
		c-0.14,0.02-0.37,0.05-0.7,0.07c-0.33,0.03-0.67,0.06-1.02,0.11c3.49,0.44,5.91,1.77,7.25,4.01c1.34,2.24,2.07,6.15,2.18,11.72
		l0.44,22.53c0.03,1.59-0.02,2.58-0.14,2.97c-0.13,0.39-0.57,0.92-1.34,1.59c-0.08,0.08-0.12,0.12-0.14,0.12
		c-0.02,0-0.05,0.02-0.08,0.06L492.72,593.29z M527.22,592.61l11.61-0.23l-1.41-1.02c0-0.04-0.02-0.08-0.06-0.12
		c-0.04-0.04-0.08-0.06-0.12-0.06l-0.77-0.57c-0.59-0.53-0.9-1.26-0.91-2.19l-0.08-1.16l-0.01-0.58l-0.49-22.18
		c-0.06-2.94-0.28-5.24-0.66-6.9c-0.38-1.66-1.07-3.17-2.07-4.55c-2.46-3.21-5.69-4.77-9.68-4.69c-0.31,0.01-1.08,0.06-2.32,0.16
		c3.49,0.44,5.91,1.77,7.25,4.01c1.34,2.24,2.07,6.15,2.18,11.72l0.44,22.53c0.03,1.59-0.02,2.58-0.14,2.96
		c-0.13,0.39-0.57,0.92-1.34,1.6c-0.08,0.08-0.12,0.12-0.14,0.12s-0.05,0.02-0.08,0.06L527.22,592.61z"/>
	<path class="st2" d="M563.26,567.27l0.34,1.23c1.22,4.45,2.93,8.16,5.15,11.15s4.79,5.06,7.7,6.23c2.91,1.17,5.99,1.31,9.24,0.43
		c1.72-0.47,3.37-1.23,4.94-2.28c1.58-1.05,3.07-2.35,4.47-3.9c1.4-1.55,2.9-3.6,4.49-6.16l1.53,1.21
		c-2.83,4.79-5.75,8.46-8.76,11.01c-3.02,2.55-6.65,4.41-10.91,5.57c-4.45,1.22-8.7,1.33-12.76,0.36
		c-4.06-0.98-7.55-2.97-10.46-5.99c-2.91-3.02-4.98-6.75-6.19-11.19c-1.28-4.67-1.37-9.24-0.29-13.71c1.09-4.47,3.18-8.32,6.3-11.54
		c3.11-3.22,6.97-5.46,11.56-6.71c3.92-1.07,7.74-1.25,11.44-0.54c3.71,0.71,6.87,2.28,9.5,4.69c2.76,2.46,4.92,6.1,6.48,10.93
		L563.26,567.27z M583.4,589.4c-2.74,0.39-5.01,0.47-6.8,0.23c-1.79-0.23-3.65-0.85-5.56-1.85c-2.85-1.47-5.38-3.74-7.58-6.81
		c-2.21-3.07-3.86-6.62-4.96-10.66c-0.77-2.8-1.2-5.45-1.3-7.95c-0.1-2.5,0.16-4.84,0.79-7.02c0.63-2.18,1.68-4.37,3.17-6.59
		c-3.62,3.48-6.06,7.44-7.29,11.87c-1.24,4.43-1.21,9,0.08,13.71c1.1,4.03,3.02,7.45,5.75,10.26c2.73,2.81,5.99,4.69,9.77,5.67
		c3.78,0.97,7.65,0.92,11.61-0.16C581.96,589.85,582.74,589.62,583.4,589.4z M562.72,565.31l22.35-6.11
		c-1.42-5.03-2.91-8.52-4.48-10.45c-1.41-1.78-3.07-3-4.98-3.67c-1.91-0.66-3.85-0.72-5.83-0.18
		C562.62,546.85,560.26,553.66,562.72,565.31z M591.86,557.34c-0.87-2.73-2.06-5.1-3.57-7.09c-1.51-2-3.27-3.55-5.28-4.67
		c-2.01-1.12-4.19-1.72-6.54-1.79c2.63,1.13,4.75,2.74,6.35,4.83c1.6,2.09,2.88,4.91,3.85,8.46c0.16,0.6,0.29,1.12,0.37,1.58
		L591.86,557.34z"/>
</g>
</svg>
