<?xml version="1.0" encoding="utf-8"?>
<!-- Generator: Adobe Illustrator 27.5.0, SVG Export Plug-In . SVG Version: 6.00 Build 0)  -->
<svg version="1.1" id="レイヤー_1" xmlns="http://www.w3.org/2000/svg" xmlns:xlink="http://www.w3.org/1999/xlink" x="0px"
	 y="0px" viewBox="0 0 1024 768" style="enable-background:new 0 0 1024 768;" xml:space="preserve">
<style type="text/css">
	.st0{fill:#FFFFFF;}
	.st1{fill:#F4A00B;}
</style>
<g>
	<g>
		<path class="st0" d="M264.85,421.5c-0.3-4.73-0.46-9.49-0.46-14.3c0-121.06,98.14-219.2,219.2-219.2s219.2,98.14,219.2,219.2
			c0,48.9-12.82,88.92-39.96,125.49c-6.04,5.17-40.44,29.96-133.06,17.49c-104.74-14.1-165.96,20.95-180.27,30.42
			C301.25,543.25,269.01,486.2,264.85,421.5z"/>
		<path class="st1" d="M349.42,583.07l-1.13-0.88c-50.22-38.89-81.36-97.42-85.43-160.56l0,0c-0.31-4.77-0.46-9.62-0.46-14.43
			c0-59.08,23.01-114.63,64.79-156.41C368.95,209.01,424.5,186,483.59,186c59.09,0,114.63,23.01,156.41,64.79
			c41.78,41.78,64.79,97.33,64.79,156.41c0,49.32-12.82,89.58-40.35,126.68l-0.13,0.18l-0.17,0.15
			c-3.48,2.98-13.84,10.47-34.87,15.78c-26.75,6.76-60.31,7.49-99.75,2.17c-102.89-13.86-162.94,19.54-178.9,30.11L349.42,583.07z
			 M483.59,190c-58.02,0-112.56,22.59-153.58,63.62s-63.62,95.57-63.62,153.58c0,4.72,0.15,9.49,0.45,14.17h0
			c3.96,61.53,34.11,118.59,82.77,156.78c17.91-11.53,78.59-43.66,180.43-29.95c90.92,12.24,125-11.57,131.32-16.89
			c26.9-36.33,39.43-75.77,39.43-124.11c0-58.02-22.59-112.56-63.62-153.58C596.15,212.59,541.6,190,483.59,190z"/>
	</g>
	<path class="st1" d="M352.24,567.38c-0.3,0-0.59-0.13-0.79-0.38c-0.34-0.44-0.26-1.06,0.17-1.4c0.14-0.11,14.71-11.36,43.86-20.41
		c26.83-8.34,71.94-16.51,134.43-8.1c52.9,7.12,85.3,1.29,103.17-4.87c19.31-6.65,26.24-15.08,26.31-15.17
		c0.35-0.43,0.97-0.5,1.41-0.16s0.5,0.97,0.16,1.4c-0.29,0.36-7.23,8.88-26.99,15.73c-18.08,6.27-50.86,12.24-104.32,5.04
		c-62.05-8.36-106.82-0.27-133.44,7.99c-28.84,8.94-43.2,20.01-43.34,20.12C352.67,567.31,352.46,567.38,352.24,567.38z"/>
	<path class="st1" d="M609.33,383.22v43.93c-19.7,9.84-46.5,17.25-82.98,19.25c-90.94,4.95-150.4,50.94-171.53,70.21l-26.63,4.64
		c-2.88,0.51-5.52-1.71-5.52-4.63v-94.46L609.33,383.22z"/>
	<g>
		<path class="st1" d="M325.6,423.75l281.43-37.61c1.44-0.19,2.24-1.77,1.53-3.04c-8.11-14.43-49.75-83.46-110.68-95.43
			c-0.58-0.11-1.19,0.03-1.66,0.39L324.08,420.08C322.4,421.36,323.51,424.03,325.6,423.75z"/>
		<path class="st0" d="M325.31,425.77c-1.63,0-3.08-0.96-3.72-2.5c-0.72-1.72-0.2-3.64,1.28-4.78l172.13-132.01
			c0.93-0.71,2.12-0.99,3.26-0.77c61.92,12.16,104.2,82.44,112.04,96.41c0.66,1.17,0.69,2.59,0.09,3.79
			c-0.6,1.21-1.76,2.03-3.1,2.21l-281.43,37.61C325.68,425.76,325.49,425.77,325.31,425.77z M497.49,289.64L325.29,421.67
			c-0.03,0.04-0.01,0.1,0.01,0.11l0.03-0.01l281.43-37.61C599.12,370.38,557.68,301.46,497.49,289.64z"/>
	</g>
	<g>
		<path class="st1" d="M500.5,333.55c0,22.43-16.16,27.97-36.09,27.97c-19.93,0-36.09-5.55-36.09-27.97
			c0-22.43,16.16-51.43,36.09-51.43C484.34,282.12,500.5,311.12,500.5,333.55z"/>
		<path class="st0" d="M464.41,363.52c-25.63,0-38.09-9.8-38.09-29.97c0-11.55,4.07-24.71,10.89-35.21
			c7.63-11.75,17.29-18.22,27.2-18.22s19.57,6.47,27.2,18.22c6.82,10.5,10.89,23.67,10.89,35.21
			C502.5,353.72,490.04,363.52,464.41,363.52z M464.41,284.12c-8.38,0-17.08,5.98-23.84,16.4c-6.42,9.88-10.25,22.23-10.25,33.04
			c0,17.96,10.51,25.97,34.09,25.97s34.09-8.01,34.09-25.97c0-10.81-3.83-23.16-10.25-33.04
			C481.48,290.09,472.79,284.12,464.41,284.12z"/>
	</g>
	<path class="st1" d="M334.11,534.72c-0.5,0-1.01-0.19-1.39-0.57c-0.79-0.77-0.81-2.04-0.04-2.83c0.51-0.52,12.44-12.78,18.11-17.94
		c0.82-0.74,2.08-0.68,2.83,0.13c0.74,0.82,0.68,2.08-0.13,2.83c-5.58,5.08-17.81,17.65-17.93,17.77
		C335.15,534.52,334.63,534.72,334.11,534.72z"/>
	<path class="st1" d="M339.49,544.88c-0.21,0-0.43-0.07-0.61-0.21c-0.44-0.34-0.52-0.96-0.18-1.4c0.23-0.3,23.65-30.38,63.6-50.08
		c0.5-0.24,1.1-0.04,1.34,0.45s0.04,1.09-0.45,1.34c-39.52,19.49-62.67,49.21-62.9,49.51C340.08,544.75,339.79,544.88,339.49,544.88
		z"/>
	<path class="st1" d="M564.24,453.36c-0.49,0-0.92-0.37-0.99-0.87c-0.07-0.55,0.31-1.05,0.86-1.12
		c56.01-7.4,83.81-31.89,97.27-51.13c0.32-0.45,0.94-0.56,1.39-0.25s0.56,0.94,0.25,1.39c-13.69,19.57-41.92,44.47-98.64,51.96
		C564.33,453.36,564.29,453.36,564.24,453.36z"/>
	<g>
		<path class="st1" d="M759.42,321.77c0,0-17.4,31.06-46.7,38.49c-29.3,7.43-59.26-11.02-59.26-11.02s17.26-31.61,46.56-39.04
			S759.42,321.77,759.42,321.77z"/>
		<path class="st0" d="M697.95,364.04c-23.94,0-44.5-12.46-45.54-13.1l-1.62-1l0.91-1.67c0.72-1.32,18.02-32.46,47.83-40.02
			c29.79-7.56,59.7,11.03,60.96,11.83l1.6,1.01l-0.93,1.66c-0.73,1.3-18.17,31.89-47.96,39.45
			C708.08,363.5,702.94,364.04,697.95,364.04z M656.22,348.5c6.67,3.64,31.78,15.96,56.01,9.82c24.27-6.15,40.35-29.38,44.43-35.85
			c-6.67-3.74-31.91-16.49-56.14-10.34C676.27,318.28,660.26,341.94,656.22,348.5z"/>
	</g>
	<path class="st1" d="M663.38,349.69c0,0-33.32,12.54-60.51-0.65c-27.2-13.19-38.22-46.61-38.22-46.61s33.57-13.06,60.76,0.14
		C652.6,315.76,663.38,349.69,663.38,349.69z"/>
	<path class="st1" d="M607.09,426.74l-1.79-3.58l1.79-0.89c27.56-13.76,40.63-32.37,46.74-45.56c6.63-14.31,6.75-25.52,6.75-25.63
		l0.01-2l3.99,0.01l0,2c0,0.48-0.09,12.04-7.03,27.1c-6.37,13.83-19.98,33.32-48.68,47.65L607.09,426.74z"/>
	<path class="st1" d="M478.1,475.11l3.99,14.26l-1.34-0.06c-1.18-2.55-2.43-4.75-3.75-6.6c-1.33-1.85-2.73-3.36-4.22-4.55
		c-1.49-1.18-3.09-2.08-4.8-2.68c-1.71-0.6-3.65-0.95-5.83-1.05c-3.1-0.14-6.01,0.33-8.74,1.39c-2.73,1.06-5.13,2.63-7.19,4.69
		c-2.06,2.07-3.71,4.55-4.93,7.44c-1.22,2.89-1.9,6.03-2.05,9.42c-0.23,5.12,0.58,9.83,2.42,14.14c1.84,4.3,4.47,7.73,7.89,10.29
		c3.43,2.56,7.29,3.93,11.6,4.12c2.97,0.13,5.77-0.32,8.41-1.37c2.64-1.04,5.02-2.61,7.13-4.7s4-4.76,5.64-8l1.62,0.07
		c-2.46,5.73-5.98,10.01-10.55,12.82c-4.57,2.81-10.06,4.08-16.47,3.79c-7.48-0.33-13.59-2.63-18.32-6.89
		c-2.02-1.85-3.7-3.92-5.03-6.22c-1.33-2.29-2.32-4.79-2.96-7.49c-0.64-2.7-0.9-5.45-0.78-8.26c0.23-5.23,1.76-9.95,4.59-14.16
		c2.83-4.22,6.62-7.46,11.36-9.74s9.93-3.29,15.55-3.04c2.36,0.1,5.46,0.58,9.29,1.44c2.66,0.62,4.59,0.95,5.8,1.01
		C476.93,475.21,477.49,475.19,478.1,475.11z M455.48,527.15c-3.3-1.07-6.26-2.51-8.89-4.34c-2.63-1.83-4.8-3.96-6.51-6.41
		c-1.71-2.44-2.96-5.19-3.76-8.24c-0.8-3.05-1.12-6.35-0.96-9.89c0.12-2.63,0.46-4.98,1.02-7.06c0.56-2.08,1.42-4.05,2.57-5.91
		c1.15-1.86,2.57-3.56,4.27-5.12c1.7-1.56,3.75-3.07,6.16-4.54c-2.81,1.11-5.31,2.47-7.48,4.07c-2.18,1.6-4.03,3.43-5.57,5.48
		c-1.54,2.05-2.73,4.31-3.58,6.79c-0.85,2.47-1.33,5.08-1.45,7.81c-0.13,2.94,0.17,5.77,0.89,8.48c0.72,2.72,1.81,5.22,3.26,7.53
		c1.45,2.3,3.24,4.27,5.38,5.92c2.14,1.62,4.37,2.86,6.68,3.71C449.84,526.29,452.49,526.86,455.48,527.15z"/>
	<path class="st1" d="M506.19,521.84c-3.48,2.41-7.06,3.44-10.75,3.09c-2.96-0.28-5.25-1.28-6.86-2.98
		c-1.62-1.7-2.31-3.79-2.07-6.28c0.34-3.53,2.33-6.14,5.98-7.82c3.65-1.68,8.73-2.34,15.24-1.98l0.11-1.1l0.05-0.55
		c0.2-2.04,0.26-3.72,0.21-5.03c-0.06-1.31-0.23-2.31-0.5-3c-0.32-0.8-0.82-1.46-1.49-1.98c-0.68-0.53-1.43-0.83-2.27-0.91
		c-1.23-0.12-2.24,0.19-3.02,0.92c-0.78,0.73-1.35,1.92-1.69,3.58c-0.37,1.63-0.82,2.71-1.34,3.26c-0.53,0.54-1.37,0.76-2.52,0.65
		c-0.89-0.09-1.61-0.47-2.15-1.16c-0.54-0.69-0.76-1.53-0.67-2.52c0.13-1.33,0.73-2.5,1.8-3.49c1.07-0.99,2.5-1.72,4.27-2.18
		c1.77-0.46,3.68-0.6,5.72-0.4c2.64,0.25,4.91,1.01,6.79,2.26c1.89,1.25,3.22,2.86,4.01,4.84c0.43,1.02,0.7,2.14,0.81,3.37
		c0.11,1.23,0.06,2.9-0.14,5.02l-1.08,11.3c-0.21,2.17-0.04,3.75,0.52,4.72s1.7,1.71,3.45,2.19l-0.1,1.06l-12.64-1.21L506.19,521.84
		z M497.26,523.99c-4.36-1.34-6.35-3.99-5.97-7.94c0.25-2.56,1.49-4.66,3.73-6.3c0.99-0.72,2.86-1.59,5.6-2.59
		c-3.22,0.3-5.76,0.89-7.62,1.77c-3.16,1.55-4.88,3.82-5.17,6.83c-0.21,2.17,0.41,4.01,1.87,5.51c1.45,1.5,3.44,2.37,5.95,2.61
		C496.25,523.93,496.79,523.97,497.26,523.99z M500.24,492.99c-1.88,0.29-3.42,0.92-4.63,1.87c-1.22,0.95-1.88,2.08-2.01,3.39
		c-0.05,0.5,0.03,0.9,0.24,1.21c0.21,0.31,0.51,0.49,0.9,0.52c0.37,0.04,0.65-0.05,0.86-0.25c0.2-0.2,0.4-0.64,0.6-1.31
		c0.43-1.44,0.91-2.51,1.44-3.21C498.16,494.51,499.03,493.77,500.24,492.99z M506.35,520.11l1.25-12.99
		c-2.58,0.15-4.82,0.59-6.72,1.34c-1.91,0.74-3.41,1.77-4.52,3.09c-1.1,1.32-1.74,2.83-1.9,4.53c-0.17,1.73,0.21,3.21,1.14,4.45
		c0.92,1.24,2.17,1.93,3.74,2.08C501.27,522.79,503.61,521.96,506.35,520.11z M507.34,523.89l5.81,0.56l-0.84-0.79
		c-0.07-0.09-0.12-0.13-0.15-0.13l-0.47-0.44c-0.36-0.43-0.5-0.95-0.45-1.55l0.08-0.79l0-0.4l1.28-13.34
		c0.35-3.64,0.19-6.4-0.47-8.28c-0.95-2.52-2.64-4.24-5.09-5.16c1.56,1.34,2.36,3.3,2.4,5.9c0.01,1.58-0.15,4.03-0.46,7.32
		L507.34,523.89z"/>
	<path class="st1" d="M522.18,527.92l0.05-1.06c1.8-0.22,3.05-0.77,3.76-1.64s1.11-2.41,1.23-4.61l1.98-38.04
		c0.12-2.21-0.14-3.79-0.76-4.76c-0.62-0.97-1.8-1.63-3.55-1.98l0.05-0.87l12.75-0.8l-2.44,46.86c-0.11,2.18,0.13,3.75,0.72,4.7
		c0.6,0.95,1.78,1.63,3.55,2.04l-0.06,1.06L522.18,527.92z M526.21,526.39l7.87,0.41l-0.91-0.76c-0.05-0.06-0.1-0.1-0.15-0.13
		l-0.49-0.42c-0.35-0.39-0.52-0.9-0.51-1.53l0.04-0.79l0.02-0.39l2.45-47.13l-6.49,0.37l1.48,1.18c0.03,0,0.08,0.04,0.15,0.13
		l0.49,0.42c0.25,0.2,0.41,0.48,0.47,0.83c0.06,0.36,0.07,0.98,0.02,1.88l-2.19,42.13c-0.06,1.08-0.14,1.74-0.26,2
		c-0.12,0.26-0.45,0.6-1,1.01c-0.08,0.05-0.12,0.09-0.12,0.11L526.21,526.39z"/>
	<path class="st1" d="M579.68,504.41c0.12,0.92,0.19,1.88,0.21,2.87l0.26,13.09c0.04,2.18,0.41,3.73,1.1,4.63
		c0.69,0.91,1.92,1.5,3.68,1.78l0.02,1.06l-17.31,0.34l-0.02-1.06c1.78-0.35,2.98-0.99,3.61-1.92c0.63-0.93,0.92-2.49,0.88-4.67
		l-0.26-13.33c-0.06-2.86-0.28-4.85-0.67-5.94c-0.36-1.18-0.99-2.1-1.87-2.76c-0.88-0.67-1.9-0.99-3.06-0.97
		c-1.66,0.03-3.22,0.59-4.7,1.67c-1.48,1.08-3.24,2.94-5.29,5.58l0.31,16.04c0.04,2.18,0.39,3.73,1.06,4.63
		c0.66,0.91,1.89,1.5,3.68,1.78l0.02,1.06l-17.31,0.34l-0.02-1.06c1.78-0.35,2.99-0.99,3.63-1.91c0.64-0.92,0.94-2.48,0.89-4.69
		l-0.32-16.56c-0.04-2.21-0.41-3.77-1.1-4.69c-0.69-0.92-1.92-1.49-3.68-1.72l-0.02-0.87l12.66-1.71l0.15,7.41
		c2.08-2.7,4.1-4.66,6.06-5.9c1.96-1.23,4.1-1.88,6.41-1.92c2.68-0.05,4.93,0.59,6.76,1.94c1.83,1.35,3.11,3.29,3.84,5.82
		c1.62-2.03,3.01-3.6,4.17-4.7c2.43-2.28,5.27-3.45,8.53-3.52c2.02-0.04,3.89,0.38,5.6,1.25c1.71,0.87,3.06,2.13,4.04,3.77
		c1.06,1.74,1.62,4.15,1.68,7.22l0.26,13.09c0.04,2.18,0.39,3.73,1.06,4.63c0.66,0.91,1.89,1.5,3.68,1.78l0.02,1.06l-17.31,0.34
		l-0.02-1.06c1.81-0.35,3.02-0.99,3.65-1.92c0.63-0.93,0.92-2.49,0.88-4.67l-0.26-13.32c-0.06-2.89-0.28-4.87-0.67-5.94
		c-0.36-1.2-0.98-2.13-1.85-2.78c-0.87-0.65-1.87-0.97-3-0.95c-1.66,0.03-3.27,0.62-4.84,1.77
		C583.35,500,581.6,501.85,579.68,504.41z M547.94,526.84l7.88-0.15l-0.96-0.69c-0.05-0.05-0.11-0.09-0.16-0.11l-0.52-0.38
		c-0.38-0.36-0.58-0.86-0.62-1.49l-0.02-0.79l-0.01-0.39l-0.5-25.66l-6.45,0.84l1.56,1.07c0.03,0,0.08,0.04,0.16,0.11l0.52,0.38
		c0.27,0.18,0.44,0.45,0.53,0.8c0.09,0.35,0.14,0.98,0.15,1.87l0.4,20.66c0.02,1.08-0.02,1.75-0.12,2.01
		c-0.1,0.27-0.41,0.63-0.93,1.08c-0.08,0.05-0.12,0.1-0.12,0.12L547.94,526.84z M571.51,526.38l7.88-0.15l-0.92-0.69
		c-0.05-0.03-0.11-0.06-0.16-0.12l-0.52-0.38c-0.4-0.39-0.61-0.88-0.62-1.49l-0.06-0.79l-0.01-0.39l-0.29-15.06
		c-0.1-3.63-0.73-6.22-1.89-7.77c-0.76-1.04-1.72-1.84-2.89-2.41s-2.41-0.84-3.72-0.82c-0.16,0-0.28,0.01-0.37,0.03
		c-0.09,0.02-0.25,0.03-0.47,0.05c-0.22,0.02-0.45,0.04-0.69,0.07c2.37,0.3,4.01,1.2,4.92,2.72c0.91,1.52,1.4,4.17,1.48,7.96
		l0.3,15.3c0.02,1.08-0.01,1.75-0.1,2.01c-0.09,0.26-0.39,0.62-0.91,1.08c-0.05,0.05-0.08,0.08-0.1,0.08
		c-0.01,0-0.03,0.01-0.06,0.04L571.51,526.38z M594.93,525.92l7.88-0.15l-0.96-0.69c0-0.03-0.02-0.05-0.04-0.08
		c-0.03-0.03-0.05-0.04-0.08-0.04l-0.52-0.38c-0.4-0.36-0.61-0.86-0.62-1.49l-0.06-0.79l-0.01-0.39l-0.33-15.06
		c-0.04-2-0.19-3.56-0.45-4.68c-0.26-1.13-0.73-2.15-1.4-3.09c-1.67-2.18-3.86-3.24-6.57-3.18c-0.21,0-0.73,0.04-1.57,0.11
		c2.37,0.3,4.01,1.2,4.92,2.72c0.91,1.52,1.4,4.17,1.48,7.96l0.3,15.3c0.02,1.08-0.01,1.75-0.1,2.01c-0.09,0.27-0.39,0.63-0.91,1.08
		c-0.05,0.05-0.08,0.08-0.1,0.08s-0.03,0.01-0.06,0.04L594.93,525.92z"/>
	<path class="st1" d="M619.4,508.72l0.23,0.84c0.83,3.02,1.99,5.54,3.5,7.57c1.51,2.03,3.25,3.44,5.22,4.23
		c1.98,0.8,4.07,0.89,6.27,0.29c1.17-0.32,2.29-0.84,3.36-1.55c1.07-0.71,2.08-1.6,3.04-2.65c0.95-1.05,1.97-2.44,3.05-4.18
		l1.04,0.82c-1.92,3.25-3.9,5.74-5.95,7.47c-2.05,1.73-4.52,2.99-7.41,3.78c-3.02,0.83-5.9,0.91-8.66,0.24
		c-2.76-0.66-5.12-2.02-7.1-4.07c-1.98-2.05-3.38-4.58-4.2-7.6c-0.87-3.17-0.93-6.27-0.19-9.31c0.74-3.03,2.16-5.65,4.28-7.83
		c2.11-2.19,4.73-3.7,7.85-4.56c2.66-0.73,5.25-0.85,7.77-0.37c2.52,0.48,4.67,1.55,6.45,3.18c1.87,1.67,3.34,4.14,4.4,7.42
		L619.4,508.72z M633.07,523.74c-1.86,0.26-3.4,0.32-4.62,0.16c-1.22-0.16-2.47-0.58-3.78-1.26c-1.93-1-3.65-2.54-5.15-4.62
		c-1.5-2.08-2.62-4.49-3.37-7.23c-0.52-1.9-0.81-3.7-0.88-5.4c-0.07-1.7,0.11-3.29,0.54-4.77c0.43-1.48,1.14-2.97,2.15-4.47
		c-2.46,2.36-4.11,5.05-4.95,8.06c-0.84,3.01-0.82,6.11,0.05,9.31c0.75,2.74,2.05,5.06,3.91,6.96c1.86,1.9,4.07,3.19,6.63,3.85
		c2.56,0.66,5.19,0.62,7.88-0.11C632.09,524.05,632.62,523.89,633.07,523.74z M619.03,507.39l15.17-4.15
		c-0.96-3.42-1.98-5.78-3.04-7.1c-0.96-1.21-2.08-2.04-3.38-2.49c-1.29-0.45-2.61-0.49-3.96-0.12
		C618.96,494.86,617.36,499.48,619.03,507.39z M638.81,501.98c-0.59-1.86-1.4-3.46-2.42-4.82c-1.02-1.36-2.22-2.41-3.58-3.17
		c-1.37-0.76-2.85-1.16-4.44-1.22c1.79,0.76,3.23,1.86,4.31,3.28c1.08,1.42,1.95,3.34,2.61,5.74c0.11,0.41,0.19,0.76,0.25,1.08
		L638.81,501.98z"/>
</g>
</svg>
