<!--?xml version="1.0" encoding="utf-8"?-->
<!-- Generator: Adobe Illustrator 18.1.1, SVG Export Plug-In . SVG Version: 6.00 Build 0)  -->

<svg version="1.1" id="_x32_" xmlns="http://www.w3.org/2000/svg" xmlns:xlink="http://www.w3.org/1999/xlink" x="0px" y="0px" viewBox="0 0 512 512" style="width: 256px; height: 256px; opacity: 1;" xml:space="preserve">
<style type="text/css">
	.st0{fill:#4B4B4B;}
</style>
<g>
	<path class="st0" d="M291.088,58.026l39.878-39.878c3.003-3.004,3.003-7.877,0-10.88c-2.996-2.996-7.869-2.996-10.873,0.008
		l-39.877,39.877c-3.004,3.004-3.004,7.877-0.009,10.873C283.211,61.03,288.084,61.03,291.088,58.026z" style="fill: rgb(98, 71, 59);"></path>
	<path class="st0" d="M426.566,227.131l-57.3-21.37c-9.137-3.404-26.101-6.258-39.293-0.309l-52.703,23.272
		c-0.317-0.392-0.584-0.8-0.943-1.159c-0.35-0.35-0.767-0.626-1.151-0.935l23.272-52.703c5.95-13.192,3.096-30.156-0.308-39.293
		l-21.37-57.3c-2.028-5.416-6.542-9.02-11.673-9.304c-5.132-0.284-9.996,2.812-12.55,7.986l-33.452,55.823
		c-5.641,11.423-6.4,33.953,2.253,55.748c7.96,20.017,18.232,36.823,26.527,48.655l-50.842,50.842l9.279-21.02
		c5.949-13.192,3.096-30.156-0.308-39.293l-21.37-57.292c-2.028-5.423-6.542-9.028-11.674-9.312
		c-5.132-0.284-9.996,2.812-12.55,7.986l-33.452,55.823c-5.641,11.423-6.4,33.952,2.253,55.748
		c7.96,20.017,18.224,36.823,26.527,48.655L12.69,471.427c-5.466,5.466-5.466,14.319,0,19.785
		c22.787,22.788,74.697,33.778,112.464-3.988c37.758-37.758,63.442-39.268,96.668-45.31
		c-30.431-39.894-69.148-44.467-105.513-34.554l59.202-59.195c11.833,8.303,28.647,18.566,48.664,26.527
		c21.787,8.653,44.325,7.894,55.748,2.253l55.823-33.452c5.174-2.554,8.261-7.418,7.977-12.55c-0.275-5.132-3.88-9.646-9.303-11.674
		l-57.292-21.37c-9.137-3.404-26.101-6.258-39.293-0.309l-21.044,9.296l50.858-50.866c11.841,8.31,28.646,18.574,48.664,26.526
		c21.795,8.661,44.325,7.902,55.748,2.261l55.824-33.452c5.173-2.554,8.268-7.418,7.985-12.55
		C435.586,233.673,431.981,229.159,426.566,227.131z" style="fill: rgb(98, 71, 59);"></path>
	<path class="st0" d="M485.752,172.935l-39.878,39.869c-3.003,3.004-3.003,7.877,0,10.881c2.996,3.004,7.869,3.004,10.873,0
		l39.877-39.877c3.004-3.004,3.004-7.877,0-10.873C493.629,169.932,488.748,169.932,485.752,172.935z" style="fill: rgb(98, 71, 59);"></path>
	<path class="st0" d="M501.164,2.252c-3.003-3.003-7.877-3.003-10.88,0l-39.878,39.87c-3.004,3.003-3.004,7.876,0,10.88
		c2.996,2.996,7.869,2.996,10.873-0.008l39.876-39.869C504.16,10.121,504.16,5.248,501.164,2.252z" style="fill: rgb(98, 71, 59);"></path>
	<path class="st0" d="M324.591,178.459c3.572,3.563,8.837,4.923,13.91,3.588l59.803-15.754
		c10.147-2.678,18.232-10.756,20.902-20.902l15.746-59.796c1.343-5.082-0.017-10.346-3.572-13.918
		c-3.563-3.563-8.844-4.915-13.918-3.58l-59.795,15.746c-10.155,2.678-18.232,10.756-20.911,20.91l-15.754,59.795
		C319.676,169.622,321.028,174.896,324.591,178.459z" style="fill: rgb(98, 71, 59);"></path>
</g>
</svg>
