<?xml version="1.0" encoding="utf-8"?>
<!-- Generator: Adobe Illustrator 26.5.0, SVG Export Plug-In . SVG Version: 6.00 Build 0)  -->
<svg version="1.1" id="レイヤー_1" xmlns="http://www.w3.org/2000/svg" xmlns:xlink="http://www.w3.org/1999/xlink" x="0px"
	 y="0px" viewBox="0 0 768 768" style="enable-background:new 0 0 768 768;" xml:space="preserve">
<style type="text/css">
	.st0{fill:#E37032;}
	.st1{enable-background:new    ;}
	.st2{fill:#F4EFE3;}
</style>
<g>
	<circle class="st0" cx="384" cy="384" r="312"/>
</g>
<image style="overflow:visible;enable-background:new    ;" width="257" height="257" xlink:href="3DCAD7047D87CC3E.png"  transform="matrix(0.4513 0 0 0.4513 326 150)">
</image>
<g class="st1">
	<path class="st2" d="M173.9,321.3c0.9,0.1,1.9,0.2,3,0.3s2.1,0.1,3.1,0.1c0.6,0,1.7,0,3.3,0c1.7,0,3.7,0,6,0s4.9,0,7.6,0
		s5.4,0,8.1,0c2.7,0,5.2,0,7.5,0c2.3,0,4.3,0,5.9,0c1.6,0,2.7,0,3.3,0c0.7,0,1.6,0,2.8-0.1c1.2-0.1,2.2-0.2,3-0.3v8.3
		c-0.8-0.1-1.7-0.1-2.8-0.2s-2.1,0-3,0c-0.6,0-1.6,0-3.3,0s-3.6,0-5.9,0s-4.9,0-7.5,0c-2.7,0-5.4,0-8.1,0s-5.2,0-7.6,0s-4.4,0-6,0
		s-2.8,0-3.3,0c-0.9,0-2,0-3.1,0.1c-1.1,0-2.1,0.1-3,0.2V321.3z M181.3,305c1,0.2,2.1,0.3,3.4,0.4c1.2,0.1,2.4,0.1,3.4,0.1
		c0.8,0,1.9,0,3.3,0s2.9,0,4.6,0s3.4,0,5.1,0s3.2,0,4.6,0s2.5,0,3.2,0c1.1,0,2.2,0,3.4-0.1c1.2-0.1,2.3-0.2,3.4-0.4v8.2
		c-1.1-0.1-2.2-0.1-3.4-0.2s-2.3,0-3.4,0c-0.7,0-1.8,0-3.2,0s-2.9,0-4.6,0s-3.4,0-5,0s-3.2,0-4.6,0s-2.5,0-3.3,0c-1.1,0-2.3,0-3.5,0
		s-2.3,0.1-3.3,0.2V305z M206.5,325.8c0,4.1-0.4,7.8-1.1,11.1c-0.7,3.3-1.8,6.2-3.1,8.9c-0.7,1.4-1.7,2.9-3,4.5
		c-1.3,1.5-2.8,3-4.4,4.3c-1.7,1.4-3.4,2.5-5.4,3.4l-7.4-5.4c2.2-0.9,4.4-2.1,6.5-3.8c2.1-1.7,3.8-3.5,5-5.3
		c1.6-2.4,2.7-5.1,3.2-8.1s0.8-6.2,0.8-9.6L206.5,325.8L206.5,325.8z M219.6,300.6c0.6,0.8,1.1,1.7,1.8,2.7s1.2,2.1,1.8,3.2
		c0.6,1.1,1.1,2,1.5,2.8l-5.1,2.2c-0.7-1.3-1.5-2.8-2.4-4.5s-1.8-3.1-2.6-4.4L219.6,300.6z M227.1,297.8c0.6,0.8,1.1,1.8,1.8,2.8
		c0.6,1.1,1.3,2.1,1.9,3.2c0.6,1,1.1,1.9,1.5,2.6l-5.1,2.2c-0.6-1.4-1.4-2.9-2.4-4.5c-1-1.7-1.9-3.1-2.7-4.3L227.1,297.8z"/>
	<path class="st2" d="M238.6,342.5c1.1,0.1,2.3,0.2,3.7,0.2c1.4,0.1,2.8,0.1,4.2,0.1H281v8.3h-34.1c-1.2,0-2.6,0-4.2,0.1
		s-2.9,0.2-4,0.2L238.6,342.5L238.6,342.5z M239.5,307.9c1.2,0.1,2.5,0.2,4,0.3c1.5,0.1,2.8,0.1,3.8,0.1h32.1c0.9,0,2,0,3.1,0
		c1.1,0,2,0,2.5-0.1c0,0.7-0.1,1.6-0.1,2.8c0,1.1-0.1,2.2-0.1,3.1v33c0,1.1,0,2.4,0.1,3.9c0.1,1.5,0.1,2.7,0.2,3.6h-9.2
		c0-0.9,0.1-2,0.1-3.1c0-1.1,0-2.3,0-3.4v-31.5h-28.6c-1.4,0-2.8,0-4.3,0.1c-1.5,0-2.7,0.1-3.6,0.2L239.5,307.9L239.5,307.9z"/>
	<path class="st2" d="M303.6,350.5c0.4-0.8,0.6-1.5,0.7-2.1c0.1-0.6,0.1-1.3,0.1-2c0-0.8,0-2,0-3.7s0-3.6,0-5.8s0-4.5,0-6.9
		s0-4.8,0-7.1c0-2.3,0-4.5,0-6.4s0-3.5,0-4.6c0-0.8,0-1.7-0.1-2.5s-0.1-1.8-0.2-2.6c-0.1-0.8-0.2-1.5-0.4-2.1h10
		c-0.2,1.2-0.3,2.4-0.5,3.6s-0.2,2.4-0.2,3.6c0,1,0,2.3,0,3.8s0,3.2,0,5s0,3.7,0,5.7s0,3.9,0,5.8s0,3.7,0,5.4s0,3.2,0,4.5s0,2.3,0,3
		c2.6-0.8,5.4-1.8,8.3-3.1s5.9-2.9,8.9-4.8s5.8-3.9,8.5-6.1c2.6-2.2,5-4.6,7-7.1l4.5,7.2c-4.3,5.2-9.7,9.7-16.1,13.5
		c-6.4,3.8-13.3,6.9-20.9,9.4c-0.4,0.2-1,0.4-1.7,0.6c-0.7,0.2-1.4,0.6-2.1,1.1L303.6,350.5z"/>
	<path class="st2" d="M357.6,323.6c0.8,0,1.7,0.1,2.9,0.2s2.4,0.1,3.7,0.2c1.3,0,2.5,0.1,3.6,0.1c1.1,0,2.4,0,4,0s3.3,0,5.1,0
		s3.8,0,5.7,0s3.9,0,5.9,0s3.8,0,5.5,0c1.7,0,3.3,0,4.7,0s2.5,0,3.3,0c1.5,0,2.9,0,4.2-0.2c1.3-0.1,2.4-0.2,3.2-0.2v10
		c-0.7,0-1.8-0.1-3.2-0.2c-1.4-0.1-2.8-0.1-4.2-0.1c-0.8,0-1.9,0-3.3,0s-3,0-4.7,0s-3.6,0-5.5,0c-1.9,0-3.9,0-5.9,0
		c-2,0-3.9,0-5.8,0c-1.9,0-3.5,0-5.1,0s-2.9,0-3.9,0c-1.8,0-3.7,0-5.6,0.1s-3.5,0.1-4.6,0.2L357.6,323.6L357.6,323.6z"/>
	<path class="st2" d="M421.8,317.2c1.1,0.6,2.3,1.3,3.6,2.1s2.7,1.6,4,2.5c1.4,0.9,2.6,1.7,3.9,2.4s2.2,1.4,3,2l-4.6,7.1
		c-0.9-0.6-2-1.4-3.2-2.1c-1.2-0.8-2.5-1.6-3.8-2.5c-1.3-0.9-2.6-1.7-4-2.5c-1.3-0.8-2.5-1.4-3.6-2L421.8,317.2z M419.8,347.9
		c2.4-0.4,4.9-0.9,7.3-1.6c2.4-0.6,4.9-1.4,7.3-2.3s4.8-2,7.1-3.2c3.6-2,7-4.3,10.1-6.9s5.9-5.3,8.4-8.1c2.5-2.9,4.6-5.8,6.3-8.9
		l4.9,8.7c-3,4.4-6.6,8.6-11,12.5c-4.4,3.9-9.1,7.4-14.4,10.4c-2.2,1.2-4.5,2.4-7.1,3.4s-5.1,2-7.6,2.8c-2.5,0.8-4.7,1.4-6.6,1.7
		L419.8,347.9z M431.6,302.7c1,0.6,2.2,1.3,3.5,2.1c1.3,0.8,2.7,1.6,4,2.5s2.7,1.7,3.9,2.5s2.2,1.5,3.1,2.1l-4.8,7.1
		c-0.9-0.6-1.9-1.4-3.1-2.2c-1.2-0.8-2.5-1.6-3.8-2.5s-2.6-1.7-3.9-2.5c-1.3-0.8-2.5-1.5-3.5-2.1L431.6,302.7z"/>
	<path class="st2" d="M478.9,347.7c0.5,0,1.3,0.1,2.3,0.2c1,0.1,2.1,0.1,3.2,0.1c0.6,0,1.7,0,3.2,0c1.5,0,3.2,0,5.1,0
		c1.9,0,3.9,0,6,0s4.1,0,6,0s3.5,0,4.9,0s2.2,0,2.7,0v7.4c-0.5,0-1.5,0-2.9,0s-3,0-4.9,0c-1.9,0-3.9,0-5.9,0s-4,0-5.9,0
		s-3.6,0-5.1,0s-2.5,0-3.1,0c-0.9,0-1.9,0-3,0.1c-1.1,0-1.9,0.1-2.5,0.1L478.9,347.7L478.9,347.7z M479.6,317.1
		c0.5,0,1.3,0.1,2.2,0.2c0.9,0.1,1.9,0.1,2.9,0.1c1,0,1.9,0,2.7,0c1,0,2.3,0,4,0s3.4,0,5.2,0s3.8,0,5.6,0c1.9,0,3.6,0,5.2,0s3,0,4,0
		c0.8,0,1.6,0,2.6,0s1.8,0,2.3-0.1c0,0.4-0.1,1.1-0.1,1.9s0,1.6,0,2.3c0,0.5,0,1.4,0,2.9c0,1.5,0,3.3,0,5.4s0,4.4,0,6.8s0,4.7,0,7
		s0,4.3,0,6s0,3.1,0,3.9c0,0.5,0,1.2,0,2.1s0,1.6,0,2.2h-8c0-0.5,0.1-1.3,0.1-2.3c0-1,0-1.8,0-2.4c0-1.1,0-2.5,0-4.2s0-3.6,0-5.6
		c0-2,0-4,0-6.1s0-4,0-5.8s0-3.3,0-4.5s0-2,0-2.4c-0.4,0-1.1,0-2,0s-2.1,0-3.4,0s-2.6,0-4.1,0c-1.5,0-2.9,0-4.3,0c-1.4,0-2.8,0-4,0
		s-2.3,0-3.1,0c-0.8,0-1.7,0-2.7,0s-2,0-3,0.1c-1,0-1.7,0.1-2.2,0.1L479.6,317.1L479.6,317.1z M481.3,332.1c0.9,0,1.9,0.1,3.2,0.1
		c1.3,0,2.5,0.1,3.7,0.1c0.5,0,1.4,0,2.7,0s2.8,0,4.5,0s3.5,0,5.3,0c1.8,0,3.5,0,5.2,0c1.6,0,3,0,4.2,0c1.1,0,1.9,0,2.1,0v7.2
		c-0.3,0-1,0-2.1,0c-1.1,0-2.5,0-4.1,0s-3.4,0-5.2,0c-1.8,0-3.6,0-5.3,0s-3.2,0-4.5,0s-2.2,0-2.7,0c-1.2,0-2.5,0-3.8,0
		s-2.4,0-3.1,0.1V332.1z"/>
	<path class="st2" d="M528.1,347.1c3.3-0.5,6.4-1.1,9.4-2s5.6-1.8,8.2-2.9s4.8-2.2,6.9-3.4c3.6-2.2,6.9-4.6,9.9-7.4s5.6-5.6,7.9-8.6
		c2.2-3,4-5.9,5.3-8.8l5,9c-1.6,2.8-3.6,5.7-6,8.5c-2.4,2.8-5,5.5-8,8.1s-6.2,4.9-9.6,6.9c-2.2,1.3-4.5,2.6-7,3.7s-5.2,2.2-7.9,3.1
		c-2.8,0.9-5.7,1.6-8.7,2.1L528.1,347.1z M536.1,304.7c1.1,0.8,2.4,1.7,3.9,2.8c1.5,1.1,3,2.3,4.6,3.6c1.6,1.3,3.1,2.6,4.5,3.8
		c1.4,1.2,2.5,2.3,3.4,3.3l-6.5,6.6c-0.8-0.9-1.9-2-3.2-3.2c-1.3-1.2-2.7-2.5-4.3-3.8s-3-2.6-4.5-3.8c-1.5-1.2-2.8-2.2-4-3
		L536.1,304.7z"/>
</g>
<g class="st1">
	<path class="st2" d="M166.8,414.7c-0.4,0.8-0.8,1.7-1.1,2.7c-0.4,1-0.7,1.8-1,2.5c-0.4,1.1-0.8,2.2-1.4,3.6s-1.1,2.6-1.7,4
		s-1.2,2.6-1.8,3.7c-0.8,1.6-1.8,3.3-3,5.2s-2.5,3.6-3.9,5.3c-1.4,1.7-2.8,3.1-4.2,4.4l-8-4.8c1.1-0.8,2.2-1.8,3.3-2.9
		c1-1.1,2-2.2,3-3.4c1-1.2,1.8-2.4,2.6-3.5c0.8-1.2,1.5-2.3,2.1-3.3c0.9-1.4,1.6-3,2.2-4.5c0.6-1.6,1.1-3,1.5-4.1
		c0.4-1.1,0.7-2.2,0.9-3.3c0.2-1.2,0.4-2.2,0.4-3.2L166.8,414.7z M181.5,429.1c-0.1,4.7-0.6,9-1.5,13s-2.1,7.5-3.8,10.7
		c-1.6,3.2-3.6,6.1-6,8.6s-5.1,4.8-8.1,6.7l-8.6-5.8c1.1-0.5,2.2-1,3.3-1.6s2-1.2,2.7-1.9c1.8-1.4,3.5-3,5.1-4.8
		c1.6-1.8,2.9-3.9,4.1-6.3c1.2-2.4,2.2-5.1,2.9-8.2c0.7-3.1,1.1-6.5,1.1-10.4L181.5,429.1L181.5,429.1z M156.7,424.5
		c0.7,0,1.8,0,3.2,0s3,0,4.9,0s3.8,0,5.9,0s4.1,0,6.2,0s4,0,5.8,0c1.8,0,3.4,0,4.7,0c1.3,0,2.3,0,3,0c0.9,0,1.9,0,3.2-0.1
		s2.4-0.2,3.4-0.4v8.7c-1.2-0.1-2.4-0.2-3.7-0.2s-2.2,0-3,0s-1.9,0-3.6,0c-1.7,0-3.7,0-5.9,0s-4.6,0-7.1,0s-4.9,0-7.2,0
		c-2.3,0-4.4,0-6.2,0c-1.8,0-3.2,0-4.2,0L156.7,424.5z"/>
	<path class="st2" d="M204.7,435c0.8,0,1.7,0.1,2.9,0.2c1.2,0.1,2.4,0.1,3.7,0.2c1.3,0,2.5,0.1,3.6,0.1c1.1,0,2.4,0,3.9,0
		c1.6,0,3.3,0,5.1,0s3.8,0,5.7,0s3.9,0,5.9,0s3.8,0,5.5,0c1.7,0,3.3,0,4.7,0c1.4,0,2.5,0,3.3,0c1.5,0,2.9,0,4.2-0.2
		c1.3-0.1,2.4-0.2,3.3-0.2v10c-0.7,0-1.8-0.1-3.2-0.2c-1.4-0.1-2.8-0.1-4.2-0.1c-0.8,0-1.9,0-3.3,0s-3,0-4.7,0s-3.6,0-5.5,0
		s-3.9,0-5.9,0c-2,0-3.9,0-5.8,0c-1.9,0-3.5,0-5.1,0s-2.9,0-3.9,0c-1.8,0-3.7,0-5.6,0.1s-3.5,0.1-4.6,0.2L204.7,435L204.7,435z"/>
	<path class="st2" d="M266.2,427.1c1,0,2-0.1,3-0.2c1-0.1,2-0.2,2.9-0.3c0.9-0.1,2.2-0.3,4-0.5s3.6-0.5,5.9-0.8
		c2.2-0.3,4.5-0.7,6.8-1s4.6-0.8,6.8-1.1c2.2-0.4,4.2-0.7,5.9-1s3.1-0.5,4-0.7c1-0.2,2.1-0.4,3.2-0.7c1.1-0.2,2-0.5,2.8-0.7l1.5,8.3
		c-0.7,0-1.6,0.1-2.7,0.3s-2.2,0.3-3.1,0.5c-1.1,0.2-2.6,0.4-4.5,0.7s-3.9,0.6-6.1,1c-2.2,0.4-4.5,0.7-6.9,1.1
		c-2.3,0.4-4.6,0.7-6.7,1.1c-2.1,0.4-4,0.7-5.6,0.9c-1.6,0.2-2.8,0.5-3.6,0.6c-1,0.2-2,0.4-2.9,0.6c-0.9,0.2-1.9,0.4-3,0.7
		L266.2,427.1z M266.3,445.9c0.9,0,1.9-0.1,3.2-0.3c1.3-0.1,2.4-0.3,3.4-0.4c1.1-0.2,2.7-0.4,4.6-0.7s4.1-0.6,6.5-1
		c2.4-0.4,4.9-0.8,7.4-1.2c2.5-0.4,5-0.8,7.5-1.2c2.4-0.4,4.6-0.8,6.6-1.1s3.6-0.6,4.8-0.8c1.2-0.2,2.4-0.5,3.5-0.8s2.1-0.5,3-0.8
		l1.7,8.4c-0.9,0-1.9,0.2-3.1,0.4s-2.4,0.4-3.7,0.6c-1.4,0.2-3.1,0.5-5.1,0.8c-2,0.3-4.3,0.7-6.7,1.1s-4.9,0.8-7.5,1.2
		s-5,0.8-7.3,1.2c-2.3,0.4-4.4,0.8-6.3,1c-1.9,0.3-3.3,0.5-4.4,0.8c-1.4,0.2-2.6,0.5-3.7,0.7c-1.1,0.2-2,0.4-2.7,0.6L266.3,445.9z
		 M283.6,419.1c-0.2-0.9-0.4-1.8-0.6-2.5c-0.2-0.8-0.5-1.5-0.7-2.3l9-1.5c0.1,0.6,0.2,1.4,0.3,2.4c0.1,1,0.2,1.8,0.4,2.6
		c0.1,0.6,0.3,1.7,0.6,3.3c0.3,1.6,0.7,3.6,1.1,5.9c0.4,2.3,0.9,4.8,1.4,7.4c0.5,2.6,1,5.3,1.6,8c0.5,2.7,1,5.2,1.5,7.7
		s0.9,4.6,1.3,6.4s0.6,3.2,0.8,4.1c0.2,0.9,0.5,2,0.8,3.1c0.3,1.1,0.6,2.2,0.9,3.2l-9.2,1.7c-0.2-1.2-0.3-2.3-0.4-3.4
		c-0.1-1.1-0.2-2.1-0.5-3c-0.2-0.9-0.4-2.1-0.7-3.9c-0.3-1.8-0.7-3.8-1.1-6.2c-0.5-2.4-0.9-4.9-1.4-7.6c-0.5-2.7-1-5.4-1.5-8
		c-0.5-2.7-1-5.2-1.4-7.5c-0.5-2.3-0.8-4.4-1.2-6.1C284,421,283.8,419.8,283.6,419.1z"/>
	<path class="st2" d="M357.5,420.9c-0.4,3.2-1,6.7-1.7,10.3s-1.6,7.3-2.7,11.1c-1.2,4.3-2.7,8-4.3,11.1c-1.7,3.1-3.5,5.5-5.4,7.2
		c-2,1.7-4.1,2.5-6.5,2.5s-4.5-0.8-6.5-2.4c-2-1.6-3.5-3.8-4.7-6.6c-1.2-2.8-1.8-6-1.8-9.5c0-3.7,0.7-7.2,2.2-10.4
		c1.5-3.3,3.5-6.2,6.2-8.7c2.6-2.5,5.8-4.5,9.3-6c3.5-1.4,7.4-2.2,11.5-2.2c4,0,7.5,0.6,10.7,1.9c3.2,1.3,5.9,3,8.1,5.3
		s4,4.9,5.2,7.9c1.2,3,1.8,6.3,1.8,9.7c0,4.5-0.9,8.5-2.7,12s-4.5,6.4-8.1,8.7s-8,3.9-13.4,4.7l-4.8-7.6c1.2-0.1,2.3-0.3,3.2-0.5
		c0.9-0.2,1.8-0.4,2.7-0.6c2-0.5,3.9-1.2,5.7-2.2c1.8-1,3.3-2.1,4.6-3.6c1.3-1.4,2.3-3.1,3.1-5c0.7-1.9,1.1-4,1.1-6.3
		c0-2.5-0.4-4.8-1.1-6.9c-0.8-2.1-1.9-3.9-3.4-5.4c-1.5-1.5-3.3-2.7-5.4-3.6c-2.1-0.8-4.6-1.2-7.3-1.2c-3.4,0-6.4,0.6-9,1.8
		c-2.6,1.2-4.8,2.8-6.6,4.7s-3.1,4-4,6.2s-1.4,4.3-1.4,6.3c0,2.1,0.2,3.9,0.8,5.3s1.1,2.5,1.9,3.2c0.7,0.7,1.5,1,2.4,1
		c0.9,0,1.8-0.5,2.6-1.4c0.9-0.9,1.7-2.3,2.6-4.2c0.9-1.9,1.7-4.2,2.5-7.1c1-3.1,1.8-6.3,2.5-9.8c0.7-3.5,1.2-6.9,1.5-10.2
		L357.5,420.9z"/>
	<path class="st2" d="M397.4,445.9c-0.3,1.1-0.5,2.2-0.8,3.2c-0.2,1.1-0.3,2.1-0.3,3.2c0,2.1,1,3.8,3.1,5.1s5.4,1.9,10,1.9
		c2.9,0,5.7-0.1,8.4-0.3c2.7-0.2,5.2-0.5,7.6-0.9c2.4-0.4,4.5-0.8,6.4-1.3l0.1,8.9c-1.8,0.4-3.9,0.8-6.2,1.1s-4.8,0.6-7.5,0.8
		c-2.6,0.2-5.5,0.3-8.4,0.3c-4.9,0-8.9-0.5-12.2-1.6c-3.2-1.1-5.7-2.6-7.3-4.6s-2.5-4.5-2.5-7.4c0-1.8,0.1-3.5,0.5-5.1
		c0.3-1.5,0.5-2.9,0.8-4.1L397.4,445.9z M392.1,418.9c2.3,0.3,5,0.5,7.9,0.6s6.1,0.2,9.4,0.2c2.1,0,4.3,0,6.5-0.1
		c2.2-0.1,4.4-0.2,6.4-0.4s3.9-0.3,5.5-0.4v8.5c-1.5,0.1-3.3,0.2-5.4,0.3s-4.3,0.2-6.6,0.3s-4.4,0.1-6.5,0.1c-3.3,0-6.4-0.1-9.2-0.2
		s-5.6-0.3-8.1-0.5V418.9z M429.5,412.3c0.5,0.8,1.1,1.7,1.8,2.7c0.6,1.1,1.2,2.1,1.8,3.2c0.6,1.1,1.1,2,1.5,2.8l-5.2,2.2
		c-0.6-1.3-1.4-2.8-2.3-4.5c-0.9-1.7-1.8-3.2-2.6-4.4L429.5,412.3z M437.1,409.5c0.5,0.8,1.1,1.7,1.8,2.8c0.6,1.1,1.3,2.1,1.9,3.1
		s1.1,1.9,1.5,2.7l-5.1,2.2c-0.7-1.3-1.5-2.8-2.4-4.5c-0.9-1.7-1.9-3.1-2.7-4.3L437.1,409.5z"/>
	<path class="st2" d="M441.1,434.7h52v7.3h-52V434.7z M447.3,414h39.1v7.1h-39.1V414z M466.4,440.5h8v21.4c0,2-0.3,3.5-0.8,4.6
		c-0.5,1.1-1.6,1.9-3.1,2.5c-1.5,0.5-3.3,0.9-5.4,1c-2.1,0.1-4.5,0.2-7.3,0.2c-0.2-1.1-0.6-2.3-1.1-3.7s-1.1-2.6-1.7-3.6
		c1.3,0,2.6,0.1,4,0.1c1.4,0,2.6,0,3.6,0s1.8,0,2.2,0c0.6,0,1.1-0.1,1.3-0.3s0.3-0.5,0.3-1L466.4,440.5L466.4,440.5z M456.1,429.2
		l3.9-5.8c1.7,0.6,3.6,1.3,5.8,2c2.1,0.8,4.3,1.5,6.5,2.4c2.2,0.8,4.2,1.6,6.2,2.4c2,0.8,3.6,1.5,5,2.1l-4.1,6.6
		c-1.3-0.6-2.8-1.4-4.7-2.2c-1.9-0.8-3.9-1.7-6-2.5c-2.1-0.9-4.3-1.7-6.4-2.6C460,430.6,458,429.9,456.1,429.2z M483.5,414h2
		l1.7-0.4l5.5,4.3c-1.8,1.8-3.8,3.6-6,5.4c-2.2,1.9-4.5,3.6-6.8,5.2c-2.3,1.7-4.6,3.1-6.9,4.4c-0.3-0.5-0.8-1.1-1.4-1.7
		s-1.1-1.3-1.7-1.9s-1.1-1.1-1.6-1.5c1.9-1,3.8-2.3,5.8-3.7s3.8-3,5.4-4.5c1.7-1.5,3-2.9,4-4.1L483.5,414L483.5,414z M490.6,434.7
		h1.4l1.4-0.5l6.2,2.7c-1.4,3-3,6-4.8,9c-1.8,3-3.6,5.6-5.4,7.7l-6.6-3.8c0.9-1.2,1.9-2.6,2.8-4.1c1-1.5,1.9-3.2,2.7-4.8
		s1.6-3.3,2.2-4.9L490.6,434.7L490.6,434.7z"/>
	<path class="st2" d="M506.2,447.8l6.3,1.1c-0.3,3.1-0.9,6.1-1.5,9s-1.5,5.5-2.4,7.5c-0.4-0.3-1-0.6-1.7-1s-1.5-0.7-2.2-1
		c-0.7-0.3-1.4-0.6-1.9-0.8c0.9-1.9,1.7-4.2,2.2-6.8C505.5,453.2,505.9,450.6,506.2,447.8z M503.5,425.6l3.6-5.2
		c1.1,0.9,2.2,2,3.4,3.1c1.2,1.2,2.3,2.3,3.3,3.5s1.8,2.2,2.3,3.2l-3.9,5.9c-0.5-1-1.2-2.1-2.2-3.3c-1-1.2-2-2.5-3.1-3.8
		C505.7,427.7,504.6,426.6,503.5,425.6z M503.5,438.5c2.9-0.1,6.5-0.2,10.6-0.4c4.1-0.2,8.3-0.4,12.6-0.6l-0.1,6
		c-4,0.3-8,0.6-11.9,0.9c-4,0.3-7.5,0.5-10.6,0.7L503.5,438.5z M513.3,410.5l6.8,2.4c-0.8,1.7-1.7,3.3-2.7,5.1s-1.8,3.4-2.7,5
		s-1.8,3-2.6,4.2l-5.2-2.1c0.8-1.3,1.5-2.8,2.4-4.5s1.6-3.4,2.3-5.1C512.2,413.6,512.8,412,513.3,410.5z M520.9,418l6.5,2.7
		c-1.6,2.4-3.3,5-5.1,7.6c-1.8,2.6-3.7,5.2-5.5,7.6c-1.9,2.4-3.6,4.5-5.2,6.4l-4.6-2.4c1.2-1.4,2.5-3.1,3.8-4.9
		c1.3-1.8,2.5-3.7,3.8-5.7c1.2-2,2.4-3.9,3.6-5.9S520.1,419.7,520.9,418z M513.6,441.9h6.8v28.4h-6.8V441.9z M519.4,433.4l5.4-2.4
		c0.8,1.4,1.7,2.9,2.5,4.5s1.5,3.2,2.1,4.7c0.6,1.5,1,2.9,1.3,4.2l-5.9,2.7c-0.2-1.2-0.7-2.6-1.2-4.2c-0.5-1.6-1.2-3.2-1.9-4.9
		C521,436.4,520.2,434.8,519.4,433.4z M520.5,449.3l5.6-1.9c0.9,1.9,1.7,4,2.5,6.2s1.3,4.2,1.7,5.9l-5.9,2.2c-0.3-1.7-0.8-3.7-1.5-6
		C522,453.4,521.3,451.3,520.5,449.3z M535.7,410.3l7.9,1.8c-0.9,3.1-2,6.2-3.2,9.3c-1.2,3-2.6,5.9-4.1,8.5s-3,4.9-4.7,6.9
		c-0.5-0.5-1.2-1-2-1.6c-0.8-0.6-1.7-1.2-2.5-1.7s-1.7-1-2.3-1.3c1.7-1.7,3.2-3.7,4.5-6c1.4-2.3,2.6-4.8,3.7-7.5
		S535,413.1,535.7,410.3z M533.2,439.2l6.2-3.1c1.1,1.4,2.2,3,3.3,4.7s2.1,3.4,3,5.1c0.9,1.7,1.5,3.2,2,4.5L541,454
		c-0.4-1.3-1-2.8-1.8-4.5c-0.8-1.7-1.8-3.5-2.8-5.2C535.4,442.4,534.3,440.8,533.2,439.2z M535.3,421.2h22.9v7.3h-22.9V421.2z
		 M554.9,421.2h7.4c0,0.9,0,1.7,0,2.2c0,0.5,0,1-0.1,1.3c-0.2,7-0.4,13-0.7,17.9c-0.2,4.9-0.5,9-0.9,12.1s-0.7,5.7-1.2,7.5
		c-0.5,1.8-1,3.2-1.7,4c-0.9,1.2-1.8,2.1-2.8,2.5s-2.1,0.8-3.5,1c-1.1,0.2-2.6,0.2-4.4,0.2s-3.7,0-5.6-0.1c0-1.1-0.3-2.4-0.8-3.9
		c-0.5-1.5-1.1-2.8-1.8-3.9c2,0.2,3.9,0.3,5.6,0.3c1.7,0,3,0.1,3.8,0.1c0.7,0,1.2-0.1,1.6-0.2s0.8-0.5,1.2-0.8
		c0.5-0.5,1-1.7,1.3-3.4s0.7-4.1,1-7.2c0.3-3.1,0.5-7,0.8-11.6c0.2-4.7,0.4-10.2,0.6-16.8L554.9,421.2L554.9,421.2z"/>
	<path class="st2" d="M583.4,415.4c-0.1,0.4-0.3,1-0.5,1.8s-0.4,1.5-0.6,2.2s-0.3,1.3-0.3,1.7c-0.2,0.9-0.5,2.1-0.7,3.6
		s-0.5,3.2-0.8,5.1c-0.3,1.9-0.5,3.8-0.8,5.8s-0.5,3.8-0.6,5.6c-0.1,1.8-0.2,3.3-0.2,4.5c0,0.6,0,1.3,0,2.1c0,0.7,0.1,1.4,0.2,2.1
		c0.3-0.8,0.6-1.5,0.9-2.2s0.7-1.4,1-2.2s0.7-1.4,1-2.2l3.9,3.2c-0.6,1.7-1.2,3.6-1.8,5.5s-1.2,3.7-1.7,5.4s-0.9,3.1-1.1,4.3
		c-0.1,0.4-0.2,0.9-0.2,1.5s-0.1,1.1-0.1,1.5c0,0.3,0,0.8,0,1.2s0,0.9,0.1,1.4l-7.2,0.6c-0.7-2.2-1.3-5.1-1.8-8.6
		c-0.5-3.5-0.8-7.4-0.8-11.8c0-2.4,0.1-4.9,0.3-7.5c0.2-2.6,0.5-5.1,0.7-7.5c0.3-2.4,0.6-4.6,0.9-6.6c0.3-2,0.5-3.6,0.7-4.9
		c0.1-0.9,0.2-1.9,0.4-3s0.2-2.2,0.2-3.2L583.4,415.4z M614.5,414.7c-0.1,0.6-0.2,1.2-0.2,2s-0.1,1.4-0.2,2.2c0,0.7-0.1,1.6-0.1,2.7
		s-0.1,2.4-0.1,3.9s0,2.9,0,4.5c0,2.9,0,5.6,0.1,8.1c0.1,2.5,0.2,4.9,0.3,7s0.2,4.1,0.3,5.9c0.1,1.8,0.2,3.4,0.2,5
		c0,1.7-0.2,3.2-0.7,4.6s-1.2,2.6-2.1,3.7s-2.3,1.9-3.8,2.5s-3.5,0.9-5.8,0.9c-4.4,0-7.9-0.9-10.4-2.7c-2.5-1.8-3.8-4.4-3.8-7.7
		c0-2.2,0.6-4.1,1.7-5.7c1.2-1.6,2.8-2.9,4.9-3.8s4.6-1.4,7.5-1.4c3,0,5.8,0.3,8.2,1s4.7,1.5,6.8,2.5s3.8,2.2,5.4,3.5s3,2.5,4.3,3.6
		l-4.4,6.7c-2.4-2.3-4.8-4.3-7.1-5.9s-4.6-2.9-6.8-3.8s-4.6-1.3-7-1.3c-1.8,0-3.2,0.3-4.4,1s-1.7,1.6-1.7,2.9c0,1.3,0.6,2.2,1.7,2.8
		c1.2,0.6,2.5,0.9,4.2,0.9c1.3,0,2.4-0.2,3.1-0.7s1.3-1.1,1.6-2s0.5-1.9,0.5-3.1c0-1.1,0-2.5-0.1-4.3s-0.2-3.8-0.3-6
		s-0.2-4.5-0.3-6.9c-0.1-2.4-0.1-4.7-0.1-7c0-2.4,0-4.6,0-6.6s0-3.5,0-4.4c0-0.5,0-1.1-0.1-2c-0.1-0.9-0.2-1.6-0.3-2.2L614.5,414.7
		L614.5,414.7z M590.3,425.4c1.8,0.2,3.7,0.3,5.5,0.4c1.8,0.1,3.7,0.2,5.6,0.2c3.9,0,7.8-0.2,11.7-0.5c3.9-0.3,7.4-0.9,10.7-1.6v8
		c-3.3,0.5-6.9,0.8-10.8,1.1c-3.9,0.3-7.7,0.4-11.6,0.4c-1.9,0-3.7,0-5.6-0.1c-1.8-0.1-3.7-0.2-5.6-0.3L590.3,425.4L590.3,425.4z"/>
</g>
<g class="st1">
	<path class="st2" d="M313.1,556.7c-0.3,1.1-0.5,2.2-0.8,3.2c-0.2,1.1-0.3,2.1-0.3,3.2c0,2,1,3.7,3.1,5s5.4,2,10,2
		c2.9,0,5.7-0.1,8.3-0.3c2.7-0.2,5.2-0.5,7.6-0.9s4.5-0.8,6.4-1.3l0.1,9c-1.9,0.4-4,0.8-6.2,1.1s-4.8,0.6-7.4,0.8
		c-2.6,0.2-5.5,0.3-8.4,0.3c-4.8,0-8.9-0.5-12.2-1.6s-5.7-2.6-7.3-4.6c-1.6-2-2.4-4.5-2.4-7.4c0-1.9,0.1-3.6,0.5-5.1
		c0.3-1.5,0.6-2.9,0.8-4.1L313.1,556.7z M307.8,529.7c2.3,0.2,5,0.5,7.9,0.6c2.9,0.1,6.1,0.2,9.4,0.2c2.1,0,4.2,0,6.5-0.1
		c2.2-0.1,4.4-0.2,6.5-0.3s3.9-0.3,5.5-0.5v8.5c-1.5,0.1-3.3,0.2-5.4,0.4s-4.3,0.2-6.6,0.3c-2.3,0.1-4.4,0.1-6.5,0.1
		c-3.3,0-6.4-0.1-9.2-0.2s-5.6-0.3-8.1-0.5V529.7z"/>
	<path class="st2" d="M355,532.7c2,0.3,4.2,0.6,6.6,0.9s4.6,0.3,6.6,0.3c2,0,4.3-0.1,6.7-0.2s5-0.3,7.7-0.6s5.4-0.6,8.2-1
		c2.7-0.4,5.4-0.9,8-1.4l0.1,7.6c-2,0.3-4.3,0.7-6.9,1s-5.2,0.7-8,0.9s-5.6,0.5-8.3,0.7s-5.2,0.2-7.5,0.2c-2.5,0-4.8,0-7-0.2
		s-4.3-0.2-6.2-0.4L355,532.7L355,532.7z M377.3,525.2c-0.3,1.1-0.6,2.2-0.9,3.3c-0.2,1.1-0.5,2.2-0.7,3.2c-0.2,1-0.5,2.2-0.7,3.5
		c-0.3,1.3-0.6,2.7-0.9,4.2s-0.7,2.9-1,4.4s-0.7,2.9-1.1,4.4c-0.4,1.4-0.7,2.7-1.1,3.9c2.6-1.4,5.2-2.5,7.7-3.1
		c2.5-0.6,5.2-0.9,8.1-0.9c3.4,0,6.4,0.6,9,1.7c2.6,1.2,4.6,2.7,6,4.8c1.4,2,2.1,4.4,2.1,7.1c0,3.6-0.8,6.6-2.5,9
		c-1.6,2.5-4,4.4-7,5.8c-3,1.4-6.7,2.3-10.9,2.7c-4.2,0.4-8.9,0.3-14-0.2l-2.2-8.2c3.5,0.6,6.9,0.9,10.2,0.9s6.3-0.3,9-1
		s4.8-1.7,6.4-3.1c1.6-1.4,2.4-3.3,2.4-5.6c0-1.9-0.8-3.5-2.4-4.9c-1.6-1.4-4-2.1-7.1-2.1c-3.7,0-7.1,0.6-10.2,1.9
		c-3.1,1.3-5.6,3.1-7.5,5.5c-0.3,0.5-0.6,0.9-0.9,1.3c-0.3,0.4-0.6,0.9-0.9,1.5l-7.5-2.7c1.2-2.3,2.3-4.9,3.3-7.8s1.9-5.9,2.7-8.8
		s1.5-5.7,2-8.3s0.9-4.7,1.1-6.3c0.2-1.4,0.3-2.5,0.4-3.5c0-1,0-1.9-0.1-3L377.3,525.2z"/>
	<path class="st2" d="M425,537.5c-0.2,0.8-0.4,1.9-0.7,3.3s-0.5,2.7-0.7,4.2c-0.2,1.4-0.4,2.8-0.6,4.1s-0.4,2.4-0.5,3.3
		c2.9-2.1,5.9-3.6,9.1-4.6c3.2-1,6.4-1.5,9.7-1.5c3.7,0,6.9,0.7,9.5,2c2.6,1.4,4.6,3.1,6,5.3c1.4,2.2,2.1,4.6,2.1,7.2
		c0,2.9-0.6,5.6-1.9,8s-3.2,4.6-6,6.3s-6.5,3-11,3.7s-10.1,0.8-16.8,0.2l-2.4-8.3c6.4,0.8,11.7,1,16,0.3c4.3-0.6,7.6-1.8,9.8-3.7
		s3.3-4.1,3.3-6.8c0-1.4-0.4-2.6-1.2-3.7c-0.8-1.1-1.9-1.9-3.4-2.5s-3.1-0.9-4.9-0.9c-3.6,0-6.9,0.7-10,1.9s-5.7,3.2-7.7,5.6
		c-0.5,0.7-1,1.3-1.4,1.9s-0.7,1.2-1,1.8l-7.3-1.8c0.2-1.2,0.5-2.7,0.8-4.4s0.5-3.5,0.8-5.4s0.5-3.9,0.7-5.8c0.2-2,0.4-3.9,0.6-5.8
		s0.3-3.7,0.4-5.2L425,537.5z M424.6,524.7c1.5,0.5,3.4,1,5.7,1.5c2.3,0.5,4.7,1,7.2,1.5c2.5,0.5,4.9,0.9,7.1,1.2s4,0.6,5.4,0.8
		l-1.9,7.8c-1.3-0.2-2.8-0.4-4.6-0.7c-1.8-0.3-3.7-0.7-5.7-1c-2-0.4-4-0.8-6-1.2c-2-0.4-3.7-0.8-5.4-1.2c-1.6-0.4-2.9-0.7-4-1
		L424.6,524.7z"/>
</g>
</svg>
